<?xml version="1.0" encoding="utf-8"?>
<!-- Generator: Adobe Illustrator 19.0.1, SVG Export Plug-In . SVG Version: 6.00 Build 0)  -->
<svg version="1.1" id="Слой_1" xmlns="http://www.w3.org/2000/svg" xmlns:xlink="http://www.w3.org/1999/xlink" x="0px" y="0px"
	 viewBox="0 0 120 120" style="enable-background:new 0 0 120 120;" xml:space="preserve">
<style type="text/css">
	.st0{fill:#874F40;stroke:#191B1C;stroke-width:3;stroke-miterlimit:10;}
	.st1{fill:#F9E074;}
	.st2{fill:#589255;stroke:#1A1C1D;stroke-width:3;stroke-linecap:round;stroke-linejoin:round;}
	.st3{fill:none;stroke:#1A1C1D;stroke-width:3;stroke-linecap:round;stroke-linejoin:round;}
</style>
<rect x="5.4" y="55.6" class="st0" width="110.6" height="61.8"/>
<path class="st1" d="M64.4,66.9H59c-0.9,0-1.6-0.7-1.6-1.6v-8.3c0-0.9,0.7-1.6,1.6-1.6h5.4c0.9,0,1.6,0.7,1.6,1.6v8.3
	C65.9,66.2,65.2,66.9,64.4,66.9z"/>
<g>
	<path class="st2" d="M5.4,55.6V39.1C5.4,19.8,24,3.9,46.9,3.9h27.6c22.8,0,41.5,15.8,41.5,35.2v16.4C116,55.6,5.4,55.6,5.4,55.6z"
		/>
	<path class="st3" d="M96.2,55.5c-11.9,0-21.6-23.1-21.6-51.6H46.9c0,28.5-9.6,51.6-21.6,51.6"/>
</g>
</svg>
