<?xml version="1.0" encoding="utf-8"?>
<!-- Generator: Adobe Illustrator 19.0.1, SVG Export Plug-In . SVG Version: 6.00 Build 0)  -->
<svg version="1.1" id="Слой_1" xmlns="http://www.w3.org/2000/svg" xmlns:xlink="http://www.w3.org/1999/xlink" x="0px" y="0px"
	 viewBox="0 0 1920 1080" style="enable-background:new 0 0 1920 1080;" xml:space="preserve">
<style type="text/css">
	.st0{fill:#FDF9F7;}
	.st1{fill:#FBEDE5;}
	.st2{fill:#FBEDE5;stroke:#D24A43;stroke-width:3;stroke-miterlimit:10;}
	.st3{fill:none;stroke:#D24A43;stroke-width:3;stroke-miterlimit:10;}
	.st4{fill:none;stroke:#D24A43;stroke-width:2;stroke-miterlimit:10;}
	.st5{fill:#F7E0DD;}
</style>
<polygon class="st0" points="2010,868.8 559.2,720 643.6,372.5 2010,37.4 "/>
<path class="st1" d="M-120.3-31.7c45.7-15.2,144.6,6,209.8,61c48.7,41,53.9,80.1,97.6,90.2c57.9,13.5,82.7-47.1,159.8-57.3
	c101.3-13.4,188.9,74.2,211,96.3c86.7,86.8,30.6,185.2,100,229.3c57,36.3,101.3-17.4,198.8,18.3c19.3,7.1,110.8,40.6,128,118.3
	c13.6,61.1-24,125.9-68.3,161c-96.4,76.4-235.9,20.8-250,61c-13.4,38,111.4,88.2,101.2,148.8c-7.4,44.3-85.7,85.5-153.7,75.6
	c-112.2-16.4-121.4-161.1-222-173.2c-85.9-10.3-109.5,91.6-222,92.7c-96.8,1-135.4-73.9-197.6-51.2
	c-74.6,27.2-69.8,153.3-92.7,153.7C-183.4,993.6-316.9,33.8-120.3-31.7z"/>
<rect x="36" y="304.5" class="st2" width="335.4" height="335.4"/>
<line class="st3" x1="36" y1="304.5" x2="142.1" y2="198.4"/>
<line class="st3" x1="371.4" y1="304.5" x2="461" y2="214.9"/>
<polyline class="st3" points="461,214.9 477.5,198.4 478,198.4 142.1,198.4 "/>
<line class="st3" x1="478" y1="200.4" x2="478" y2="534"/>
<line class="st3" x1="371.4" y1="639.9" x2="479.3" y2="532"/>
<line class="st4" x1="142.1" y1="198.4" x2="142.1" y2="304.5"/>
<rect x="1168.6" y="862.1" transform="matrix(0.6246 -0.7809 0.7809 0.6246 -251.3896 1275.0936)" class="st5" width="64" height="73.8"/>
</svg>
