<?xml version="1.0" encoding="utf-8"?>
<!-- Generator: Adobe Illustrator 19.0.1, SVG Export Plug-In . SVG Version: 6.00 Build 0)  -->
<svg version="1.1" id="Слой_1" xmlns="http://www.w3.org/2000/svg" xmlns:xlink="http://www.w3.org/1999/xlink" x="0px" y="0px"
	 viewBox="0 0 80 60" enable-background="new 0 0 80 60" xml:space="preserve">
<rect fill="#3EB5F1" width="80" height="60"/>
<g>
	<path fill="#D24A43" d="M34.7,29.3c0-5.7,2.7-10.8,6.9-14.1c-3-2.4-6.9-3.8-11.1-3.8c-9.9,0-17.9,8-17.9,17.9
		c0,9.9,8,17.9,17.9,17.9c4.2,0,8-1.4,11.1-3.8C37.4,40.1,34.7,35,34.7,29.3z"/>
	<path fill="#E69D44" d="M50.5,11.4c-4.2,0-8,1.4-11.1,3.8c4.2,3.3,6.9,8.4,6.9,14.1c0,5.7-2.7,10.8-6.9,14.1
		c3,2.4,6.9,3.8,11.1,3.8c9.9,0,17.9-8,17.9-17.9C68.5,19.4,60.4,11.4,50.5,11.4z"/>
	<path fill="#D86B43" d="M47.4,29.3c0-6.1-2.7-11.5-6.9-15c-4.2,3.5-6.9,8.9-6.9,15c0,6.1,2.7,11.5,6.9,15
		C44.7,40.8,47.4,35.4,47.4,29.3z"/>
</g>
</svg>
