<?xml version="1.0" encoding="utf-8"?>
<!-- Generator: Adobe Illustrator 19.0.1, SVG Export Plug-In . SVG Version: 6.00 Build 0)  -->
<svg version="1.1" id="Слой_1" xmlns="http://www.w3.org/2000/svg" xmlns:xlink="http://www.w3.org/1999/xlink" x="0px" y="0px"
	 viewBox="0 0 80 60" enable-background="new 0 0 80 60" xml:space="preserve">
<g>
	<g id="g5">
		<path id="path7" fill="#54AB62" d="M24.4,18.7L24.4,18.7c0,0-2.6,0-3.3,2.5c-0.6,2.3-2.4,8.5-2.5,8.7h-0.5c0,0-1.8-6.4-2.5-8.7
			c-0.7-2.5-3.3-2.5-3.3-2.5H6.5v18.7h5.9V26.4h0.2h0.2l3.4,11.1h4.1l3.4-11.1h0.5v11.1h5.9V18.7H24.4z"/>
	</g>
	<g id="g9">
		<path id="path11" fill="#54AB62" d="M45.9,18.7c0,0-1.7,0.2-2.5,2l-4.2,9.2h-0.5V18.7h-5.9v18.7h5.6l0,0c0,0,1.8-0.2,2.6-2
			l4.1-9.2h0.5v11.1h5.9V18.7H45.9z"/>
	</g>
	<g id="g13">
		<path id="path15" fill="#54AB62" d="M54.1,27.3v10.2H60v-6h6.4c2.8,0,5.1-1.8,6-4.3H54.1z"/>
	</g>
	<g id="g17">
		
			<linearGradient id="path24_1_" gradientUnits="userSpaceOnUse" x1="53.2578" y1="39.4023" x2="72.75" y2="39.4023" gradientTransform="matrix(1 0 0 -1 0 62)">
			<stop  offset="0.3" style="stop-color:#45ABD3"/>
			<stop  offset="1" style="stop-color:#4A88B7"/>
		</linearGradient>
		<path id="path24" fill="url(#path24_1_)" d="M66.4,18.7H53.3c0.7,3.6,3.3,6.4,6.8,7.4l0,0c0.8,0.2,1.6,0.3,2.5,0.3h10.1
			c0.1-0.4,0.1-0.9,0.1-1.3C72.8,21.6,69.9,18.7,66.4,18.7z"/>
	</g>
</g>
</svg>
