<?xml version="1.0" encoding="utf-8"?>
<!-- Generator: Adobe Illustrator 19.0.1, SVG Export Plug-In . SVG Version: 6.00 Build 0)  -->
<svg version="1.1" id="Слой_1" xmlns="http://www.w3.org/2000/svg" xmlns:xlink="http://www.w3.org/1999/xlink" x="0px" y="0px"
	 viewBox="0 0 80 60" enable-background="new 0 0 80 60" xml:space="preserve">
<rect fill="#4E6096" width="80" height="60"/>
<g>
	<path fill="#FFFFFF" d="M29.9,38.2L33,19.8h5l-3.1,18.4H29.9z"/>
	<path fill="#FFFFFF" d="M53,20.2c-1-0.4-2.5-0.8-4.5-0.8c-4.9,0-8.4,2.5-8.5,6.1c0,2.6,2.5,4.1,4.4,5c1.9,0.9,2.6,1.5,2.6,2.3
		c0,1.2-1.6,1.8-3,1.8c-2,0-3.1-0.3-4.7-1l-0.6-0.3L38,37.4c1.2,0.5,3.3,1,5.6,1c5.3,0,8.7-2.5,8.7-6.3c0-2.1-1.3-3.7-4.2-5
		c-1.8-0.9-2.8-1.4-2.8-2.3c0-0.8,0.9-1.6,2.9-1.6c1.6,0,2.8,0.3,3.7,0.7l0.4,0.2L53,20.2"/>
	<path fill="#FFFFFF" d="M65.9,19.8H62c-1.2,0-2.1,0.3-2.6,1.5l-7.4,16.8h5.3c0,0,0.9-2.3,1.1-2.8c0.6,0,5.7,0,6.4,0
		c0.1,0.6,0.6,2.8,0.6,2.8h4.6L65.9,19.8L65.9,19.8z M59.7,31.7c0.4-1.1,2-5.1,2-5.1c0,0,0.4-1.1,0.7-1.8l0.3,1.6c0,0,1,4.4,1.2,5.3
		L59.7,31.7L59.7,31.7z"/>
	<path fill="#FFFFFF" d="M25.6,19.8l-4.9,12.5l-0.5-2.5c-0.9-2.9-3.8-6.1-6.9-7.7l4.5,16.1l5.3,0l7.9-18.3L25.6,19.8"/>
	<path fill="#E9AD44" d="M16.1,19.8H8.1L8,20.2c6.3,1.5,10.4,5.2,12.2,9.6l-1.8-8.4C18.1,20.2,17.2,19.8,16.1,19.8"/>
</g>
</svg>
